<?xml version="1.0" encoding="utf-8"?>
<!-- Generator: Adobe Illustrator 28.0.0, SVG Export Plug-In . SVG Version: 6.00 Build 0)  -->
<svg version="1.1" id="Calque_1" xmlns="http://www.w3.org/2000/svg" xmlns:xlink="http://www.w3.org/1999/xlink" x="0px" y="0px"
	 viewBox="0 0 24 24" style="enable-background:new 0 0 24 24;" xml:space="preserve">
<path d="M20.1,6.8H3.9C3.4,6.8,3,6.4,3,5.9v0C3,5.4,3.4,5,3.9,5h16.2C20.6,5,21,5.4,21,5.9v0C21,6.4,20.6,6.8,20.1,6.8z"/>
<path d="M20.1,12.9H3.9C3.4,12.9,3,12.5,3,12v0c0-0.5,0.4-0.9,0.9-0.9h16.2c0.5,0,0.9,0.4,0.9,0.9v0C21,12.5,20.6,12.9,20.1,12.9z"
	/>
<path d="M20.1,19H3.9C3.4,19,3,18.6,3,18.1l0,0c0-0.5,0.4-0.9,0.9-0.9h16.2c0.5,0,0.9,0.4,0.9,0.9l0,0C21,18.6,20.6,19,20.1,19z"/>
</svg>
