<svg width="50" height="50" viewBox="0 0 50 50" fill="none" xmlns="http://www.w3.org/2000/svg">
<path d="M14.6447 0L35.3553 3.73517e-07L50 14.6447V35.3553L35.3553 50H14.6447L0 35.3553L3.73516e-07 14.6447L14.6447 0Z" fill="#141515"/>
<g clip-path="url(#clip0_1_182)">
<mask id="mask0_1_182" style="mask-type:alpha" maskUnits="userSpaceOnUse" x="16" y="4" width="30" height="21">
<path d="M16.2974 4L37.2974 25L45.9998 16.2976L33.7022 4H16.2974Z" fill="white"/>
</mask>
<g mask="url(#mask0_1_182)">
<rect x="4" y="4" width="42" height="42" fill="url(#paint0_linear_1_182)"/>
<g style="mix-blend-mode:color">
<rect x="4" y="4" width="42" height="42" fill="#CCCCCC"/>
</g>
<g style="mix-blend-mode:soft-light" opacity="0.75">
<rect x="4" y="4" width="42" height="42" fill="white"/>
</g>
</g>
<mask id="mask1_1_182" style="mask-type:alpha" maskUnits="userSpaceOnUse" x="4" y="16" width="18" height="9">
<path d="M12.7024 25L4 16.2976H21.4048L12.7024 25Z" fill="white"/>
</mask>
<g mask="url(#mask1_1_182)">
<rect x="4" y="4" width="42" height="42" fill="url(#paint1_linear_1_182)"/>
<g style="mix-blend-mode:color">
<rect x="4" y="4" width="42" height="42" fill="#CCCCCC"/>
</g>
<g style="mix-blend-mode:soft-light" opacity="0.75">
<rect x="4" y="4" width="42" height="42" fill="white"/>
</g>
</g>
<mask id="mask2_1_182" style="mask-type:alpha" maskUnits="userSpaceOnUse" x="28" y="16" width="19" height="18">
<path d="M46.0003 16.2976V33.7024H28.5955L46.0003 16.2976Z" fill="white"/>
</mask>
<g mask="url(#mask2_1_182)">
<rect x="4" y="4" width="42" height="42" fill="url(#paint2_linear_1_182)"/>
<g style="mix-blend-mode:color">
<rect x="4" y="4" width="42" height="42" fill="#CCCCCC"/>
</g>
<g style="mix-blend-mode:soft-light" opacity="0.75">
<rect x="4" y="4" width="42" height="42" fill="white"/>
</g>
</g>
<mask id="mask3_1_182" style="mask-type:alpha" maskUnits="userSpaceOnUse" x="4" y="16" width="30" height="30">
<path d="M33.7024 46L4 16.2976V33.7024L16.2976 46H33.7024Z" fill="white"/>
</mask>
<g mask="url(#mask3_1_182)">
<rect x="4" y="4" width="42" height="42" fill="url(#paint3_linear_1_182)"/>
<g style="mix-blend-mode:color">
<rect x="4" y="4" width="42" height="42" fill="#CCCCCC"/>
</g>
<g style="mix-blend-mode:soft-light" opacity="0.75">
<rect x="4" y="4" width="42" height="42" fill="white"/>
</g>
</g>
<path d="M12.7024 25L4 16.2976H21.4048L12.7024 25Z" fill="url(#paint4_linear_1_182)"/>
<path d="M16.2974 4L37.2974 25L45.9998 16.2976L33.7022 4H16.2974Z" fill="url(#paint5_linear_1_182)"/>
</g>
<defs>
<linearGradient id="paint0_linear_1_182" x1="4" y1="21" x2="45.324" y2="31.6285" gradientUnits="userSpaceOnUse">
<stop offset="0.0677083" stop-color="#576265"/>
<stop offset="0.21875" stop-color="#9EA1A1"/>
<stop offset="0.453125" stop-color="#848B8A"/>
<stop offset="0.524381" stop-color="#576265"/>
<stop offset="0.796875" stop-color="#576265"/>
<stop offset="0.895833" stop-color="#757A7B"/>
<stop offset="1" stop-color="#576265"/>
</linearGradient>
<linearGradient id="paint1_linear_1_182" x1="4" y1="21" x2="45.324" y2="31.6285" gradientUnits="userSpaceOnUse">
<stop offset="0.0677083" stop-color="#576265"/>
<stop offset="0.21875" stop-color="#9EA1A1"/>
<stop offset="0.453125" stop-color="#848B8A"/>
<stop offset="0.524381" stop-color="#576265"/>
<stop offset="0.796875" stop-color="#576265"/>
<stop offset="0.895833" stop-color="#757A7B"/>
<stop offset="1" stop-color="#576265"/>
</linearGradient>
<linearGradient id="paint2_linear_1_182" x1="4" y1="21" x2="45.324" y2="31.6285" gradientUnits="userSpaceOnUse">
<stop offset="0.0677083" stop-color="#576265"/>
<stop offset="0.21875" stop-color="#9EA1A1"/>
<stop offset="0.453125" stop-color="#848B8A"/>
<stop offset="0.524381" stop-color="#576265"/>
<stop offset="0.796875" stop-color="#576265"/>
<stop offset="0.895833" stop-color="#757A7B"/>
<stop offset="1" stop-color="#576265"/>
</linearGradient>
<linearGradient id="paint3_linear_1_182" x1="4" y1="21" x2="45.324" y2="31.6285" gradientUnits="userSpaceOnUse">
<stop offset="0.0677083" stop-color="#576265"/>
<stop offset="0.21875" stop-color="#9EA1A1"/>
<stop offset="0.453125" stop-color="#848B8A"/>
<stop offset="0.524381" stop-color="#576265"/>
<stop offset="0.796875" stop-color="#576265"/>
<stop offset="0.895833" stop-color="#757A7B"/>
<stop offset="1" stop-color="#576265"/>
</linearGradient>
<linearGradient id="paint4_linear_1_182" x1="8.2" y1="20.8" x2="17.02" y2="11.98" gradientUnits="userSpaceOnUse">
<stop stop-opacity="0.33"/>
<stop offset="1" stop-opacity="0"/>
</linearGradient>
<linearGradient id="paint5_linear_1_182" x1="42.2201" y1="20.38" x2="25.8401" y2="4" gradientUnits="userSpaceOnUse">
<stop stop-opacity="0.33"/>
<stop offset="1" stop-opacity="0"/>
</linearGradient>
<clipPath id="clip0_1_182">
<rect width="42" height="42" fill="white" transform="translate(4 4)"/>
</clipPath>
</defs>
</svg>
