<?xml version="1.0" encoding="utf-8"?>
<!-- Generator: Adobe Illustrator 28.0.0, SVG Export Plug-In . SVG Version: 6.00 Build 0)  -->
<svg version="1.1" id="Calque_1" xmlns="http://www.w3.org/2000/svg" xmlns:xlink="http://www.w3.org/1999/xlink" x="0px" y="0px"
	 viewBox="0 0 24 24" style="enable-background:new 0 0 24 24;" xml:space="preserve">
<path d="M19.8,18.5c0.3,0.3,0.3,0.9,0,1.2c-0.3,0.3-0.9,0.3-1.2,0L12,13.2l-6.5,6.5c-0.3,0.3-0.9,0.3-1.2,0c-0.4-0.3-0.4-0.9,0-1.2
	l6.5-6.5L4.2,5.5c-0.4-0.3-0.4-0.9,0-1.2C4.4,4,4.6,4,4.8,4C5.1,4,5.3,4,5.5,4.2l6.5,6.5l6.5-6.5c0.3-0.3,0.9-0.3,1.2,0
	C19.9,4.4,20,4.6,20,4.8c0,0.2-0.1,0.4-0.3,0.6L13.2,12L19.8,18.5z"/>
</svg>
