<?xml version="1.0" encoding="utf-8"?>
<!-- Generator: Adobe Illustrator 27.2.0, SVG Export Plug-In . SVG Version: 6.00 Build 0)  -->
<svg version="1.1" id="Calque_1" xmlns="http://www.w3.org/2000/svg" xmlns:xlink="http://www.w3.org/1999/xlink" x="0px" y="0px"
	 viewBox="0 0 24 24" style="enable-background:new 0 0 24 24;" xml:space="preserve">
<style type="text/css">
	.st0{fill:none;stroke:#000000;stroke-width:1.75;stroke-linecap:round;stroke-linejoin:round;}
</style>
<path class="st0" d="M2.4,5.4h19.2 M9.6,17.4v-7.2 M14.4,17.4v-7.2 M16.8,22.2H7.2c-1.3,0-2.4-1.1-2.4-2.4V6.6
	c0-0.7,0.5-1.2,1.2-1.2h12c0.7,0,1.2,0.5,1.2,1.2v13.2C19.2,21.1,18.1,22.2,16.8,22.2z M9.6,5.4h4.8c0.7,0,1.2-0.5,1.2-1.2V3
	c0-0.7-0.5-1.2-1.2-1.2H9.6C8.9,1.8,8.4,2.3,8.4,3v1.2C8.4,4.9,8.9,5.4,9.6,5.4z"/>
</svg>
