<?xml version="1.0" encoding="utf-8"?>
<svg version="1.1" id="Calque_1" xmlns="http://www.w3.org/2000/svg" xmlns:xlink="http://www.w3.org/1999/xlink" x="0px" y="0px"
	 viewBox="0 0 24 24" style="enable-background:new 0 0 24 24;" xml:space="preserve">
<style type="text/css">
	.st0{fill:none;stroke:#000000;stroke-width:1.75;stroke-linecap:round;stroke-linejoin:round;}
</style>
<path class="st0" d="M11,3.4H5C3.1,3.4,1.4,5,1.4,7v12c0,2,1.6,3.6,3.6,3.6h12c2,0,3.6-1.6,3.6-3.6v-6 M7.4,16.6l4.4-0.9
	c0.2,0,0.4-0.2,0.6-0.3l9.8-9.8c0.5-0.5,0.5-1.2,0-1.7l-2.1-2.1c-0.5-0.5-1.2-0.5-1.7,0l-9.8,9.8c-0.2,0.2-0.3,0.4-0.3,0.6L7.4,16.6
	z"/>
</svg>
