<svg width="50" height="50" viewBox="0 0 50 50" fill="none" xmlns="http://www.w3.org/2000/svg">
<path d="M14.6447 0L35.3553 3.73517e-07L50 14.6447V35.3553L35.3553 50H14.6447L0 35.3553L3.73516e-07 14.6447L14.6447 0Z" fill="#091920"/>
<g clip-path="url(#clip0_57_129)">
<mask id="mask0_57_129" style="mask-type:alpha" maskUnits="userSpaceOnUse" x="16" y="4" width="30" height="21">
<path d="M16.2974 4L37.2974 25L45.9998 16.2976L33.7022 4H16.2974Z" fill="white"/>
</mask>
<g mask="url(#mask0_57_129)">
<rect x="16" y="-8" width="42" height="42" fill="url(#paint0_linear_57_129)"/>
<g style="mix-blend-mode:color">
<rect x="4" y="4" width="42" height="42" fill="url(#paint1_linear_57_129)"/>
</g>
</g>
<mask id="mask1_57_129" style="mask-type:alpha" maskUnits="userSpaceOnUse" x="4" y="16" width="18" height="9">
<path d="M12.7024 25L4 16.2976H21.4048L12.7024 25Z" fill="white"/>
</mask>
<g mask="url(#mask1_57_129)">
<rect x="4" y="4" width="42" height="42" fill="url(#paint2_linear_57_129)"/>
<g style="mix-blend-mode:color">
<rect x="4" y="4" width="42" height="42" fill="url(#paint3_linear_57_129)"/>
</g>
</g>
<mask id="mask2_57_129" style="mask-type:alpha" maskUnits="userSpaceOnUse" x="28" y="16" width="19" height="18">
<path d="M46.0003 16.2976V33.7024H28.5955L46.0003 16.2976Z" fill="white"/>
</mask>
<g mask="url(#mask2_57_129)">
<rect x="29" y="4" width="42" height="42" fill="url(#paint4_linear_57_129)"/>
<g style="mix-blend-mode:color">
<rect x="4" y="4" width="42" height="42" fill="url(#paint5_linear_57_129)"/>
</g>
</g>
<mask id="mask3_57_129" style="mask-type:alpha" maskUnits="userSpaceOnUse" x="4" y="16" width="30" height="30">
<path d="M33.7024 46L4 16.2976V33.7024L16.2976 46H33.7024Z" fill="white"/>
</mask>
<g mask="url(#mask3_57_129)">
<rect x="4" y="4" width="42" height="42" fill="url(#paint6_linear_57_129)"/>
<g style="mix-blend-mode:color">
<rect x="4" y="4" width="42" height="42" fill="url(#paint7_linear_57_129)"/>
</g>
</g>
<g style="mix-blend-mode:soft-light">
<path d="M8.35282 29.3486L3.99902 33.7024L16.2942 45.9976L20.648 41.6438L8.35282 29.3486Z" fill="white"/>
</g>
<path opacity="0.1" d="M33.7024 46L20.6488 41.6488L8.3512 29.3512V20.6488L33.7024 46Z" fill="black"/>
<g style="mix-blend-mode:soft-light">
<path d="M37.2976 25L16.2976 4L29.3512 8.3512L41.6488 20.6488L37.2976 25Z" fill="white"/>
</g>
<path d="M33.704 3.99655L29.3502 8.35034L41.6454 20.6455L45.9992 16.2917L33.704 3.99655Z" fill="black" fill-opacity="0.1"/>
<g style="mix-blend-mode:soft-light">
<path d="M4 33.7024L8.3512 29.3512V20.6488L4 16.2976V33.7024Z" fill="white"/>
</g>
<path d="M46 33.7024L41.6488 29.3512V20.6488L46 16.2976V33.7024Z" fill="black" fill-opacity="0.1"/>
<g style="mix-blend-mode:soft-light">
<path d="M41.6488 29.3512L28.5952 33.7024L37.2976 25L41.6488 29.3512Z" fill="white"/>
</g>
<path d="M21.4048 16.2976L8.3512 20.6488L12.7024 25L21.4048 16.2976Z" fill="black" fill-opacity="0.1"/>
</g>
<defs>
<linearGradient id="paint0_linear_57_129" x1="16" y1="9" x2="57.324" y2="19.6285" gradientUnits="userSpaceOnUse">
<stop offset="0.0677083" stop-color="#576265"/>
<stop offset="0.21875" stop-color="#9EA1A1"/>
<stop offset="0.453125" stop-color="#848B8A"/>
<stop offset="0.524381" stop-color="#576265"/>
<stop offset="0.796875" stop-color="#576265"/>
<stop offset="0.895833" stop-color="#757A7B"/>
<stop offset="1" stop-color="#576265"/>
</linearGradient>
<linearGradient id="paint1_linear_57_129" x1="4" y1="21" x2="46" y2="29" gradientUnits="userSpaceOnUse">
<stop stop-color="#2B7798"/>
<stop offset="0.375" stop-color="#3FEFFC"/>
<stop offset="0.75" stop-color="#8DE9EE"/>
<stop offset="1" stop-color="#DCF4FF"/>
</linearGradient>
<linearGradient id="paint2_linear_57_129" x1="4" y1="21" x2="45.324" y2="31.6285" gradientUnits="userSpaceOnUse">
<stop offset="0.0677083" stop-color="#576265"/>
<stop offset="0.21875" stop-color="#9EA1A1"/>
<stop offset="0.453125" stop-color="#848B8A"/>
<stop offset="0.524381" stop-color="#576265"/>
<stop offset="0.796875" stop-color="#576265"/>
<stop offset="0.895833" stop-color="#757A7B"/>
<stop offset="1" stop-color="#576265"/>
</linearGradient>
<linearGradient id="paint3_linear_57_129" x1="4" y1="21" x2="46" y2="29" gradientUnits="userSpaceOnUse">
<stop stop-color="#2B7798"/>
<stop offset="0.375" stop-color="#3FEFFC"/>
<stop offset="0.75" stop-color="#8DE9EE"/>
<stop offset="1" stop-color="#DCF4FF"/>
</linearGradient>
<linearGradient id="paint4_linear_57_129" x1="29" y1="21" x2="70.324" y2="31.6285" gradientUnits="userSpaceOnUse">
<stop offset="0.0677083" stop-color="#576265"/>
<stop offset="0.21875" stop-color="#9EA1A1"/>
<stop offset="0.453125" stop-color="#848B8A"/>
<stop offset="0.524381" stop-color="#576265"/>
<stop offset="0.796875" stop-color="#576265"/>
<stop offset="0.895833" stop-color="#757A7B"/>
<stop offset="1" stop-color="#576265"/>
</linearGradient>
<linearGradient id="paint5_linear_57_129" x1="4" y1="21" x2="46" y2="29" gradientUnits="userSpaceOnUse">
<stop stop-color="#2B7798"/>
<stop offset="0.375" stop-color="#3FEFFC"/>
<stop offset="0.75" stop-color="#8DE9EE"/>
<stop offset="1" stop-color="#DCF4FF"/>
</linearGradient>
<linearGradient id="paint6_linear_57_129" x1="4" y1="21" x2="45.324" y2="31.6285" gradientUnits="userSpaceOnUse">
<stop offset="0.0677083" stop-color="#576265"/>
<stop offset="0.21875" stop-color="#9EA1A1"/>
<stop offset="0.453125" stop-color="#848B8A"/>
<stop offset="0.524381" stop-color="#576265"/>
<stop offset="0.796875" stop-color="#576265"/>
<stop offset="0.895833" stop-color="#757A7B"/>
<stop offset="1" stop-color="#576265"/>
</linearGradient>
<linearGradient id="paint7_linear_57_129" x1="4" y1="21" x2="46" y2="29" gradientUnits="userSpaceOnUse">
<stop stop-color="#2B7798"/>
<stop offset="0.375" stop-color="#3FEFFC"/>
<stop offset="0.75" stop-color="#8DE9EE"/>
<stop offset="1" stop-color="#DCF4FF"/>
</linearGradient>
<clipPath id="clip0_57_129">
<rect width="42" height="42" fill="white" transform="translate(4 4)"/>
</clipPath>
</defs>
</svg>
