<?xml version="1.0" encoding="UTF-8"?>
<svg id="Calque_1" data-name="Calque 1" xmlns="http://www.w3.org/2000/svg" viewBox="0 0 29 29">
  <defs>
    <style>
      .cls-1 {
        fill: #1d1d1b;
      }
    </style>
  </defs>
  <path class="cls-1" d="M26,16.62c0,6.34-5.16,11.5-11.5,11.5S3,22.96,3,16.62c0-.83,.67-1.5,1.5-1.5s1.5,.67,1.5,1.5c0,4.69,3.81,8.5,8.5,8.5s8.5-3.81,8.5-8.5c0-4.12-2.94-7.56-6.84-8.34l1.52,1.52c.59,.59,.59,1.54,0,2.12-.29,.29-.67,.44-1.06,.44s-.76-.15-1.06-.44l-4.24-4.24c-.59-.58-.59-1.53,0-2.12L15.56,1.32c.59-.59,1.54-.59,2.12,0,.59,.58,.59,1.53,0,2.12l-1.77,1.77c5.68,.7,10.09,5.55,10.09,11.41Z"/>
</svg>