<?xml version="1.0" encoding="utf-8"?>
<!-- Generator: Adobe Illustrator 27.2.0, SVG Export Plug-In . SVG Version: 6.00 Build 0)  -->
<svg version="1.1" id="Calque_1" xmlns="http://www.w3.org/2000/svg" xmlns:xlink="http://www.w3.org/1999/xlink" x="0px" y="0px"
	 viewBox="0 0 24 24" style="enable-background:new 0 0 24 24;" xml:space="preserve">
<style type="text/css">
	.st0{fill:none;stroke:#000000;stroke-width:1.75;stroke-linecap:round;}
</style>
<path class="st0" d="M6.6,21v-6c0-0.7,0.5-1.2,1.2-1.2h8.4c0.7,0,1.2,0.5,1.2,1.2v6 M17.4,3.6V6c0,0.7-0.5,1.2-1.2,1.2H7.8
	C7.1,7.2,6.6,6.7,6.6,6V2.4 M21,6.6L17.4,3c-0.4-0.4-0.9-0.6-1.5-0.6H4.5c-1.1,0-2.1,0.9-2.1,2.1v15.1c0,1.1,0.9,2.1,2.1,2.1h15.1
	c1.1,0,2.1-0.9,2.1-2.1V8.1C21.6,7.5,21.4,7,21,6.6z"/>
</svg>
