<svg xmlns="http://www.w3.org/2000/svg" xmlns:xlink="http://www.w3.org/1999/xlink" version="1.1" width="256" height="256" viewBox="0 0 256 256" xml:space="preserve">
<g style="stroke: none; stroke-width: 0; stroke-dasharray: none; stroke-linecap: butt; stroke-linejoin: miter; stroke-miterlimit: 10; fill: none; fill-rule: nonzero; opacity: 1;" transform="translate(1.4065934065934016 1.4065934065934016) scale(2.81 2.81)">
	<path d="M 73.808 39.741 H 16.192 c -1.17 0 -2.234 -0.681 -2.724 -1.744 c -0.49 -1.063 -0.317 -2.314 0.442 -3.204 L 42.718 1.052 C 43.289 0.384 44.122 0 45 0 s 1.712 0.384 2.281 1.052 l 28.808 33.741 c 0.761 0.89 0.934 2.141 0.443 3.204 S 74.979 39.741 73.808 39.741 z M 22.698 33.741 h 44.604 L 45 7.62 L 22.698 33.741 z" style="stroke: none; stroke-width: 1; stroke-dasharray: none; stroke-linecap: butt; stroke-linejoin: miter; stroke-miterlimit: 10; fill: rgb(0,0,0); fill-rule: nonzero; opacity: 1;" transform=" matrix(1 0 0 1 0 0) " stroke-linecap="round"/>
	<path d="M 45 90 c -0.878 0 -1.711 -0.385 -2.282 -1.052 L 13.91 55.208 c -0.76 -0.891 -0.933 -2.142 -0.442 -3.204 c 0.49 -1.063 1.554 -1.744 2.724 -1.744 h 57.616 c 1.171 0 2.234 0.681 2.725 1.744 c 0.49 1.062 0.317 2.313 -0.443 3.204 l -28.808 33.74 C 46.712 89.615 45.878 90 45 90 z M 22.698 56.26 L 45 82.38 l 22.302 -26.12 H 22.698 z" style="stroke: none; stroke-width: 1; stroke-dasharray: none; stroke-linecap: butt; stroke-linejoin: miter; stroke-miterlimit: 10; fill: rgb(0,0,0); fill-rule: nonzero; opacity: 1;" transform=" matrix(1 0 0 1 0 0) " stroke-linecap="round"/>
</g>
</svg>